<svg width="17" height="18" viewBox="0 0 17 18" fill="none" xmlns="http://www.w3.org/2000/svg">
<g clip-path="url(#clip0)">
<path d="M7.51284 13.5H5.92818C5.34634 13.5 4.87402 13.9852 4.87402 14.5828V15.7852H12.1265V14.5828C12.1265 13.9852 11.6542 13.5 11.0723 13.5H9.48767H7.51284Z" fill="white"/>
<path d="M16.5481 2.46797C16.0039 1.59258 15.049 1.10742 13.8613 1.10742H13.8305H3.17259H3.14178C1.95415 1.10742 0.999243 1.58906 0.455052 2.46797C-0.137056 3.41719 -0.150747 4.67227 0.410558 5.9168C1.44418 8.20195 4.70591 8.96484 4.84281 8.99648L5.16111 9.0668H11.8386L12.1569 8.99648C12.2938 8.96484 15.5555 8.20195 16.5891 5.9168C17.1539 4.67227 17.1367 3.41719 16.5481 2.46797ZM15.6137 5.45273C15.1996 6.37031 14.231 6.98906 13.4917 7.34766C13.1871 7.49531 12.8962 7.61133 12.6497 7.69922H4.34996C4.10353 7.61133 3.81261 7.49531 3.508 7.34766C2.76872 6.98906 1.80013 6.37031 1.386 5.45273C0.98213 4.55977 0.971863 3.68789 1.35862 3.06562C1.70087 2.51719 2.33405 2.21484 3.14178 2.21484H3.17259H13.8271H13.8579C14.6656 2.21484 15.2988 2.51719 15.6377 3.06211C16.0278 3.68789 16.0176 4.55625 15.6137 5.45273Z" fill="#DCDCDC"/>
<path d="M9.25479 13.5V12.4277C9.25479 11.6543 9.64497 10.9336 10.2918 10.5434C12.3557 9.29883 13.8308 5.95898 13.8308 2.03555V0H3.17285V2.03203C3.17285 5.95547 4.65141 9.29531 6.71181 10.5398C7.35868 10.9301 7.74885 11.6543 7.74885 12.4242V13.4965L8.61135 14.4141L9.25479 13.5Z" fill="white"/>
<path d="M8.14245 12.4242V13.4965H7.74885V12.4242C7.74885 11.6508 7.35868 10.9301 6.71181 10.5398C4.64799 9.29531 3.17285 5.95547 3.17285 2.03203V0H5.95199V2.03203C5.95199 5.95547 6.66047 9.29531 7.64618 10.5398C7.95421 10.9301 8.14245 11.6543 8.14245 12.4242Z" fill="#EEEEEE"/>
<path d="M8.22474 13.5H7.51284H5.92818C5.34634 13.5 4.87402 13.9852 4.87402 14.5828V15.7852H7.17058V14.5828C7.17058 13.9852 7.6429 13.5 8.22474 13.5Z" fill="#DCDCDC"/>
<path d="M7.23892 15.1946H4.47005C4.13806 15.1946 3.87109 15.4688 3.87109 15.8098V18H13.1326V15.8098C13.1326 15.4688 12.8657 15.1946 12.5337 15.1946H9.76479" fill="#DCDCDC"/>
<path d="M5.18488 15.1946H4.46614C4.13415 15.1946 3.86719 15.4688 3.86719 15.8098V18H4.58593V15.8098C4.58593 15.4688 4.85632 15.1946 5.18488 15.1946Z" fill="#C5C5C5"/>
</g>
<defs>
<clipPath id="clip0">
<rect width="17" height="18" fill="white"/>
</clipPath>
</defs>
</svg>
