<svg width="12" height="12" viewBox="0 0 12 12" fill="none" xmlns="http://www.w3.org/2000/svg">
<g clip-path="url(#clip0)">
<path d="M7.32187 4.6771C7.17891 4.53416 7.02187 4.40762 6.85078 4.29983C6.40078 4.0116 5.87578 3.85695 5.34141 3.85695C4.59844 3.8546 3.88594 4.14986 3.36094 4.6771L0.817969 7.22191C0.295313 7.74681 0 8.45683 0 9.19731C0 10.7439 1.25156 11.9975 2.79844 11.9975C3.53906 11.9999 4.25156 11.707 4.77656 11.1821L6.87656 9.08249C6.91406 9.04499 6.93516 8.99344 6.93516 8.93955C6.93516 8.82941 6.84375 8.74037 6.73359 8.74037H6.65391C6.21562 8.74271 5.77969 8.65835 5.37422 8.49198C5.29922 8.46151 5.2125 8.47792 5.15625 8.5365L3.64688 10.0479C3.17813 10.5166 2.41875 10.5166 1.95 10.0479C1.48125 9.57926 1.48125 8.82004 1.95 8.35138L4.50469 5.79954C4.97344 5.33088 5.73281 5.33088 6.20156 5.79954C6.51797 6.09713 7.01016 6.09713 7.32656 5.79954C7.4625 5.66362 7.54453 5.48319 7.55859 5.29104C7.56797 5.06374 7.48359 4.83879 7.32187 4.6771Z" fill="#7BAAE6"/>
<path d="M11.1796 0.820128C10.0851 -0.27419 8.31324 -0.27419 7.21871 0.820128L5.12105 2.91503C5.06245 2.97361 5.04605 3.06032 5.07886 3.1353C5.11167 3.21029 5.18433 3.2595 5.26636 3.25715H5.34136C5.77964 3.25715 6.21324 3.34151 6.61871 3.50788C6.69371 3.53835 6.78042 3.52194 6.83667 3.46336L8.34371 1.95897C8.81246 1.49031 9.57183 1.49031 10.0406 1.95897C10.5093 2.42763 10.5093 3.18685 10.0406 3.65551L8.16558 5.53015L8.14918 5.54889L7.49293 6.20033C7.02417 6.66899 6.2648 6.66899 5.79605 6.20033C5.47964 5.90273 4.98745 5.90273 4.67105 6.20033C4.53511 6.33624 4.45073 6.51901 4.43901 6.71116C4.42495 6.94081 4.50933 7.16342 4.67105 7.32745C4.90308 7.55944 5.17261 7.74924 5.47027 7.8875C5.51245 7.90859 5.55464 7.92265 5.59683 7.94139C5.63902 7.96014 5.68355 7.9742 5.72574 7.98826C5.76792 8.00466 5.81245 8.01872 5.85464 8.03044L5.97183 8.06324C6.05152 8.08433 6.1312 8.09839 6.21324 8.11245C6.31167 8.12651 6.41245 8.13589 6.51089 8.14057H6.65152H6.66324L6.78277 8.12651C6.8273 8.12417 6.87183 8.1148 6.92574 8.1148H6.99371L7.13199 8.09371L7.19527 8.08199L7.31011 8.05856H7.33121C7.82339 7.93436 8.27105 7.68129 8.62965 7.32276L11.1796 4.78029C12.2742 3.68597 12.2742 1.9121 11.1796 0.820128Z" fill="#7BAAE6"/>
</g>
<defs>
<clipPath id="clip0">
<rect width="12" height="12" fill="white"/>
</clipPath>
</defs>
</svg>
