<svg xmlns="http://www.w3.org/2000/svg" viewBox="0 0 12.97 12.97"><defs><style>.cls-1{opacity:0.8;}.cls-2{fill:#7baae6;}.cls-3{fill:#ebebf6;}.cls-4{fill:#e6f1fb;}</style></defs><title>Asset 1</title><g id="Layer_2" data-name="Layer 2"><g id="Layer_1-2" data-name="Layer 1"><g class="cls-1"><path class="cls-2" d="M9.15,13,3.77,13A3.79,3.79,0,0,1,0,9.15L0,3.77A3.79,3.79,0,0,1,3.82,0L9.2,0A3.79,3.79,0,0,1,13,3.82l0,5.39A3.79,3.79,0,0,1,9.15,13ZM3.81,1.1A2.68,2.68,0,0,0,1.12,3.77l0,5.39a2.67,2.67,0,0,0,2.67,2.69l5.39,0A2.7,2.7,0,0,0,11.85,9.2l0-5.39A2.67,2.67,0,0,0,9.2,1.12Z"/><path class="cls-2" d="M3.13.56,1.45,1.68.89,3.36.33,10.64l3.36,1.68H10.4l2.24-2.8v-5l-1.12-2.8L9.84.56Z"/><path class="cls-3" d="M6.47,9.54a3.06,3.06,0,1,1,3.07-3A3.05,3.05,0,0,1,6.47,9.54Zm0-5.16A2.11,2.11,0,1,0,8.58,6.49,2.11,2.11,0,0,0,6.49,4.38Z"/><path class="cls-4" d="M10.84,2.82a.67.67,0,1,1-1.33,0,.67.67,0,0,1,1.33,0Z"/></g></g></g></svg>