<svg width="20" height="25" viewBox="0 0 20 25" fill="none" xmlns="http://www.w3.org/2000/svg">
<path d="M14.165 23.202L9.51159 16.6492C9.51159 16.5542 9.41662 16.5542 9.32165 16.4592C8.94178 16.0794 8.37196 16.0794 7.99209 16.2693L1.6292 20.068C1.05939 20.3529 0.964418 21.0177 1.24932 21.5875C1.43926 21.9674 1.81914 22.1573 2.19901 22.1573C2.38895 22.1573 2.57888 22.0624 2.76882 21.9674L8.277 18.7385L12.2657 24.4366C12.4556 24.7215 12.8355 24.9114 13.2154 24.9114C13.4053 24.9114 13.6902 24.8165 13.8801 24.7215C14.45 24.4366 14.5449 23.6768 14.165 23.202Z" fill="#357FDB"/>
<path d="M19.1836 11.5862C19.2786 11.3013 19.2786 11.0164 19.0887 10.7314C19.0887 10.7314 19.0887 10.7314 19.0887 10.6365L18.9937 10.5415C18.9937 10.5415 18.9937 10.4465 18.8987 10.4465L18.8038 10.3516L18.7088 10.2566L1.61446 0.0949689C1.61446 0.0949689 1.61446 0.0949689 1.5195 0.0949689C1.5195 0.0949689 1.42453 0.0949685 1.42453 0H1.32956H1.23459H1.13962H1.04465H0.949686H0.854717H0.759748H0.664779C0.664779 0 0.56981 3.60861e-07 0.56981 0.0949689C0.56981 0.0949689 0.474843 0.0949684 0.474843 0.189937C0.474843 0.189937 0.379874 0.189937 0.379874 0.284906C0.379874 0.284906 0.284905 0.284905 0.284905 0.379874C0.284905 0.379874 0.284905 0.474843 0.189936 0.474843L0.0949671 0.569812C0.0949671 0.569812 0.0949671 0.569811 0.0949671 0.66478C0.0949671 0.66478 0.0949685 0.759749 0 0.759749V0.854717V0.949686V1.04465C0 1.04465 0 1.04465 0 1.13962V21.5579C0 22.2226 0.474842 22.6975 1.13962 22.6975C1.8044 22.6975 2.27924 22.2226 2.27924 21.5579V3.03899L16.0497 11.2063L10.7314 14.2453C10.1616 14.5302 10.0667 15.195 10.3516 15.7648C10.5415 16.1447 10.9214 16.3346 11.3013 16.3346C11.4912 16.3346 11.6811 16.2396 11.8711 16.1447L18.5189 12.156C18.6138 12.156 18.6138 12.061 18.7088 12.061C18.8038 11.966 18.8038 11.966 18.8987 11.8711C18.8987 11.8711 18.8987 11.8711 18.8987 11.7761C19.0887 11.6811 19.0887 11.5862 19.1836 11.5862Z" fill="#EF3044"/>
</svg>
