<svg width="94" height="17" viewBox="0 0 94 17" fill="none" xmlns="http://www.w3.org/2000/svg">
<path d="M88.9629 6.49692C89.8176 6.49692 90.4824 6.78183 90.8623 7.25667C91.2422 7.73151 91.5271 8.3963 91.5271 9.25101V9.53592H86.3988V9.44095C86.4938 8.58623 86.7786 7.92145 87.2535 7.35164C87.7283 6.78183 88.2981 6.49692 88.9629 6.49692ZM89.2478 16.2787C90.1975 16.2787 90.9573 16.1837 91.622 15.8988C92.2868 15.6139 92.7617 15.329 93.2365 14.9491L92.4768 13.6196C92.0969 13.9994 91.622 14.1894 91.1472 14.3793C90.6724 14.5693 90.0076 14.6642 89.3428 14.6642C88.3931 14.6642 87.6334 14.2843 87.1585 13.6196C86.6837 12.9548 86.3988 12.1001 86.3038 11.0554V10.9604H93.5214V9.72585C93.5214 8.20636 93.1415 7.06674 92.3818 6.21202C91.6221 5.3573 90.4824 4.88246 88.9629 4.88246C87.6334 4.88246 86.5887 5.3573 85.639 6.40196C84.6893 7.44661 84.2145 8.6812 84.2145 10.2957V10.7705C84.2145 12.385 84.6893 13.7145 85.639 14.6642C86.4937 15.7089 87.7283 16.2787 89.2478 16.2787ZM80.3208 15.9938V6.59189H82.6V5.16737H80.3208V3.74284C80.3208 3.07806 80.5107 2.60321 80.7956 2.22334C81.0805 1.84347 81.5554 1.7485 82.1252 1.7485C82.5051 1.7485 82.79 1.7485 83.1699 1.84347L83.4548 0.323968C83.1698 0.229 82.8849 0.229 82.695 0.134031C82.5051 0.134031 82.2202 0.0390625 82.0302 0.0390625C80.8906 0.0390625 80.0359 0.323968 79.3711 0.988748C78.7063 1.65353 78.4214 2.50825 78.4214 3.64787V5.0724H76.712V6.49692H78.4214V15.9938H80.3208ZM72.0585 15.9938H74.0529V5.16737H72.0585V15.9938ZM72.0585 2.31831H74.0529V0.323968H72.0585V2.31831ZM66.5504 15.9938H68.5447V0.323968H66.5504V15.9938ZM54.2044 5.16737V15.9938H56.1988V8.01642C56.4837 7.54158 56.8636 7.1617 57.2434 6.8768C57.7183 6.59189 58.1931 6.49692 58.7629 6.49692C59.5227 6.49692 60.1875 6.68686 60.5673 7.06674C60.9472 7.44661 61.1371 8.11139 61.1371 9.15604V15.9938H63.1315V9.15604C63.1315 7.73151 62.8466 6.68686 62.1818 5.92711C61.517 5.26233 60.5673 4.88246 59.3327 4.88246C58.573 4.88246 58.0032 5.0724 57.4334 5.3573C56.8636 5.64221 56.3887 6.11705 56.0088 6.68686L55.8189 5.0724C56.0088 5.16736 54.2044 5.16737 54.2044 5.16737ZM46.8919 6.49692C47.7466 6.49692 48.4114 6.78183 48.7912 7.25667C49.1711 7.73151 49.456 8.3963 49.456 9.25101V9.53592H44.3277V9.44095C44.4227 8.58623 44.7076 7.92145 45.1824 7.35164C45.5623 6.78183 46.1321 6.49692 46.8919 6.49692ZM47.1768 16.2787C48.1264 16.2787 48.8862 16.1837 49.551 15.8988C50.2158 15.6139 50.6906 15.329 51.1654 14.9491L50.4057 13.6196C50.0258 13.9994 49.551 14.1894 49.0761 14.3793C48.5063 14.5693 47.9365 14.6642 47.2717 14.6642C46.322 14.6642 45.5623 14.2843 45.0875 13.6196C44.5176 12.9548 44.3277 12.1001 44.2327 11.0554V10.9604H51.4503V9.72585C51.4503 8.20636 51.0705 7.06674 50.3107 6.21202C49.551 5.3573 48.4114 4.88246 46.8919 4.88246C45.5623 4.88246 44.5176 5.3573 43.568 6.40196C42.6183 7.44661 42.1434 8.6812 42.1434 10.2957V10.7705C42.1434 12.385 42.6183 13.7145 43.568 14.6642C44.3277 15.7089 45.6573 16.2787 47.1768 16.2787ZM35.3057 6.49692C36.1604 6.49692 36.8252 6.78183 37.2051 7.25667C37.5849 7.73151 37.8698 8.3963 37.8698 9.25101V9.53592H32.7415V9.44095C32.8365 8.58623 33.1214 7.92145 33.5963 7.35164C33.9761 6.78183 34.6409 6.49692 35.3057 6.49692ZM35.5906 16.2787C36.5403 16.2787 37.3 16.1837 37.9648 15.8988C38.6296 15.6139 39.1044 15.329 39.5793 14.9491L38.8195 13.6196C38.4397 13.9994 37.9648 14.1894 37.49 14.3793C36.9202 14.5693 36.3503 14.6642 35.6856 14.6642C34.7359 14.6642 33.9761 14.2843 33.5013 13.6196C32.9315 12.9548 32.7415 12.1001 32.6466 11.0554V10.9604H39.8642V9.72585C39.8642 8.20636 39.4843 7.06674 38.7246 6.21202C37.9648 5.3573 36.8252 4.88246 35.3057 4.88246C33.9761 4.88246 32.9315 5.3573 31.9818 6.40196C31.0321 7.44661 30.5573 8.6812 30.5573 10.2957V10.7705C30.5573 12.385 31.0321 13.7145 31.9818 14.6642C32.8365 15.7089 34.0711 16.2787 35.5906 16.2787ZM29.1327 5.0724C29.0378 5.0724 28.9428 4.97743 28.7529 4.97743C28.5629 4.97743 28.468 4.97743 28.278 4.97743C27.7082 4.97743 27.1384 5.16736 26.6636 5.45227C26.1887 5.73718 25.8088 6.21202 25.5239 6.78183L25.334 5.16737H23.5296V15.9938H25.5239V8.20636C25.7139 7.73151 25.9988 7.44661 26.3787 7.16171C26.7585 6.8768 27.2334 6.78183 27.7082 6.78183L28.7529 6.8768L29.1327 5.0724ZM16.5019 14.6642C15.4573 14.6642 14.6975 14.2843 14.2227 13.5246C13.7478 12.7648 13.5579 11.8152 13.5579 10.7705V10.3906C13.5579 9.34598 13.7478 8.3963 14.2227 7.63655C14.6975 6.8768 15.4573 6.49692 16.5019 6.49692C17.2617 6.49692 17.8315 6.68686 18.3063 7.16171C18.7812 7.63655 19.0661 8.20636 19.0661 8.87114H20.8705V8.77617C20.8705 7.63655 20.4906 6.78183 19.6359 6.02208C18.7812 5.26233 17.7365 4.88246 16.407 4.88246C14.7925 4.88246 13.5579 5.3573 12.7032 6.40196C11.8485 7.44661 11.3736 8.77617 11.3736 10.2957V10.6755C11.3736 12.195 11.8485 13.5246 12.7032 14.5693C13.5579 15.6139 14.7925 16.0888 16.407 16.0888C17.5466 16.0888 18.5912 15.7089 19.5409 14.9491C20.3956 14.1894 20.8705 13.3347 20.8705 12.4799V12.385H19.0661C19.0661 12.9548 18.7812 13.4296 18.3063 13.9045C17.7365 14.4743 17.1667 14.6642 16.5019 14.6642ZM7.195 13.1447C7.195 12.6699 7.00507 12.385 6.72016 12.1001C6.34029 11.8152 5.77047 11.5303 4.82079 11.3403C3.49123 11.0554 2.44658 10.6755 1.7818 10.2007C1.11702 9.72585 0.737142 9.06108 0.737142 8.20636C0.737142 7.35164 1.11702 6.59189 1.87677 5.92711C2.63651 5.26233 3.68117 4.97743 4.91576 4.97743C6.24532 4.97743 7.28997 5.26233 8.04972 5.92711C8.80947 6.59189 9.18935 7.35164 9.18935 8.30133V8.3963H7.28997C7.28997 7.92145 7.10003 7.44661 6.72016 7.06674C6.34029 6.68686 5.77048 6.49692 5.1057 6.49692C4.34595 6.49692 3.87111 6.68686 3.49123 6.97177C3.11136 7.25667 2.92142 7.63655 2.92142 8.11139C2.92142 8.58623 3.11136 8.87114 3.39626 9.15604C3.68117 9.44095 4.34595 9.63089 5.29563 9.82082C6.72016 10.1057 7.76482 10.4856 8.4296 11.0554C9.09438 11.5303 9.47425 12.195 9.47425 13.0498C9.47425 13.9994 9.09438 14.7592 8.23966 15.424C7.38494 16.0887 6.34029 16.2787 5.1057 16.2787C3.68117 16.2787 2.54155 15.8988 1.7818 15.234C0.927081 14.5693 0.547206 13.7145 0.642175 12.7648V12.6699H2.54155C2.54155 13.3347 2.82645 13.9045 3.30129 14.1894C3.77614 14.4743 4.44092 14.6642 5.1057 14.6642C5.86545 14.6642 6.43526 14.5693 6.81513 14.1894C7.00507 13.9994 7.195 13.6196 7.195 13.1447Z" fill="#37393E"/>
</svg>
