<svg width="18" height="17" viewBox="0 0 18 17" fill="none" xmlns="http://www.w3.org/2000/svg">
<path d="M11.1705 6.5041C10.9717 6.30531 10.7533 6.12934 10.5154 5.97944C9.88957 5.57862 9.15948 5.36354 8.41635 5.36354C7.38313 5.36029 6.39229 5.77088 5.66219 6.5041L2.1258 10.0431C1.39896 10.773 0.988281 11.7604 0.988281 12.7902C0.988281 14.9409 2.72878 16.6843 4.87995 16.6843C5.9099 16.6876 6.90075 16.2802 7.63084 15.5503L10.5512 12.6305C10.6034 12.5783 10.6327 12.5066 10.6327 12.4317C10.6327 12.2785 10.5056 12.1547 10.3524 12.1547H10.2416C9.63208 12.158 9.02585 12.0407 8.46198 11.8093C8.35768 11.7669 8.23708 11.7897 8.15886 11.8712L6.05983 13.9731C5.40796 14.6248 4.35193 14.6248 3.70006 13.9731C3.04819 13.3213 3.04819 12.2655 3.70006 11.6138L7.25276 8.06502C7.90463 7.41328 8.96066 7.41328 9.61253 8.06502C10.0525 8.47888 10.737 8.47888 11.177 8.06502C11.3661 7.87601 11.4801 7.62509 11.4997 7.35788C11.5127 7.04178 11.3954 6.72895 11.1705 6.5041Z" fill="white"/>
<path d="M16.5352 1.14039C15.0131 -0.381432 12.549 -0.381432 11.0269 1.14039L8.10976 4.05368C8.02828 4.13515 8.00546 4.25572 8.05109 4.36C8.09672 4.46428 8.19776 4.53271 8.31184 4.52945H8.41614C9.02564 4.52945 9.62862 4.64677 10.1925 4.87814C10.2968 4.9205 10.4174 4.89769 10.4956 4.81622L12.5914 2.72412C13.2432 2.07238 14.2993 2.07238 14.9512 2.72412C15.603 3.37587 15.603 4.43169 14.9512 5.08344L12.3437 7.69041L12.3209 7.71648L11.4082 8.6224C10.7564 9.27415 9.70033 9.27415 9.04845 8.6224C8.60844 8.20854 7.92398 8.20854 7.48396 8.6224C7.29492 8.81141 7.17758 9.06559 7.16129 9.3328C7.14173 9.65216 7.25907 9.96173 7.48396 10.1898C7.80664 10.5125 8.18146 10.7764 8.5954 10.9687C8.65407 10.998 8.71274 11.0176 8.77141 11.0436C8.83008 11.0697 8.89201 11.0892 8.95067 11.1088C9.00934 11.1316 9.07127 11.1512 9.12994 11.1675L9.29291 11.2131C9.40372 11.2424 9.51454 11.262 9.62862 11.2815C9.76551 11.3011 9.90567 11.3141 10.0426 11.3206H10.2381H10.2544L10.4206 11.3011C10.4826 11.2978 10.5445 11.2848 10.6195 11.2848H10.714L10.9063 11.2554L10.9943 11.2392L11.154 11.2066H11.1833C11.8678 11.0339 12.4903 10.6819 12.989 10.1833L16.5352 6.64762C18.0573 5.1258 18.0573 2.65895 16.5352 1.14039Z" fill="white"/>
</svg>
