<svg width="23" height="13" viewBox="0 0 23 13" fill="none" xmlns="http://www.w3.org/2000/svg">
<path d="M22.6777 11.1626C22.6178 11.0641 22.2542 10.2715 20.5047 8.6436C18.6697 6.93857 18.9178 7.21703 21.125 4.26535C22.4723 2.47035 23.007 1.37365 22.8402 0.902408C22.6819 0.456872 21.6896 0.57254 21.6896 0.57254L18.4003 0.589676C18.4003 0.589676 18.1565 0.555404 17.9725 0.666788C17.7972 0.773888 17.6817 1.02236 17.6817 1.02236C17.6817 1.02236 17.1598 2.41038 16.4669 3.59276C14.9997 6.08605 14.4137 6.21886 14.1742 6.06463C13.6182 5.70478 13.755 4.61236 13.755 3.84123C13.755 1.42506 14.1186 0.418316 13.0407 0.156992C12.6814 0.0713114 12.4205 0.0113354 11.5051 0.00276738C10.3288 -0.0100846 9.33649 0.00705138 8.77187 0.281228C8.39546 0.46544 8.10888 0.876704 8.28425 0.898124C8.5024 0.928112 8.9943 1.03093 9.25522 1.3865C9.59313 1.84489 9.5803 2.87733 9.5803 2.87733C9.5803 2.87733 9.77278 5.72191 9.1269 6.07749C8.68205 6.32167 8.07466 5.82473 6.76578 3.56277C6.09851 2.40609 5.5895 1.12089 5.5895 1.12089C5.5895 1.12089 5.49112 0.880988 5.32002 0.756752C5.11043 0.602528 4.81529 0.55112 4.81529 0.55112L1.68424 0.568256C1.68424 0.568256 1.21373 0.581108 1.04263 0.78674C0.888648 0.970952 1.0298 1.34366 1.0298 1.34366C1.0298 1.34366 3.48074 7.08423 6.25249 9.97593C8.79754 12.6277 11.6848 12.4564 11.6848 12.4564H12.9937C12.9937 12.4564 13.3872 12.4135 13.5925 12.195C13.7807 11.9937 13.7721 11.621 13.7721 11.621C13.7721 11.621 13.7465 9.86026 14.5635 9.60322C15.3676 9.34618 16.3985 11.304 17.4935 12.0537C18.319 12.6234 18.9478 12.4992 18.9478 12.4992L21.8735 12.4564C21.8735 12.4649 23.4048 12.3707 22.6777 11.1626Z" fill="white"/>
</svg>
