<svg width="19" height="16" viewBox="0 0 19 16" fill="none" xmlns="http://www.w3.org/2000/svg">
<path d="M18.5617 1.81023C17.8791 2.11723 17.1517 2.32072 16.3934 2.41953C17.1735 1.94197 17.769 1.19153 18.0489 0.287002C17.3215 0.731621 16.5184 1.04568 15.6625 1.22094C14.9719 0.466967 13.9875 0 12.9136 0C10.8301 0 9.15281 1.73378 9.15281 3.85924C9.15281 4.16507 9.17805 4.45913 9.24 4.73907C6.11134 4.58263 3.34292 3.04528 1.48316 0.703391C1.15848 1.28093 0.968027 1.94197 0.968027 2.6536C0.968027 3.98981 1.63919 5.17428 2.63963 5.86003C2.03501 5.84826 1.44186 5.6683 0.939345 5.38483C0.939345 5.39659 0.939345 5.41188 0.939345 5.42717C0.939345 7.3021 2.24382 8.85944 3.95443 9.21819C3.6481 9.30406 3.31424 9.34523 2.96776 9.34523C2.72683 9.34523 2.4836 9.33111 2.25529 9.27936C2.74289 10.8073 4.12652 11.9306 5.77174 11.9671C4.49136 12.9939 2.86565 13.6126 1.1057 13.6126C0.797081 13.6126 0.501079 13.5985 0.205078 13.5597C1.87209 14.6618 3.84773 15.2911 5.97825 15.2911C12.9033 15.2911 16.6894 9.40992 16.6894 4.3121C16.6894 4.14154 16.6836 3.97687 16.6756 3.81337C17.4225 3.26995 18.0501 2.59126 18.5617 1.81023Z" fill="white"/>
</svg>
