<svg width="12" height="12" viewBox="0 0 12 12" fill="none" xmlns="http://www.w3.org/2000/svg">
<path d="M6.30584 0.388896L7.60192 3.02906C7.69793 3.22107 7.86594 3.34108 8.05795 3.36508L10.9621 3.79711C11.4662 3.86911 11.6822 4.49315 11.2982 4.85318L9.21002 6.8933C9.06601 7.03731 8.99401 7.22932 9.04201 7.44534L9.54604 10.3255C9.64205 10.8295 9.09001 11.2136 8.65799 10.9736L6.06582 9.60547C5.87381 9.50947 5.6578 9.50947 5.48979 9.60547L2.87362 10.9736C2.4176 11.2136 1.88956 10.8295 1.98557 10.3255L2.4896 7.44534C2.5136 7.25333 2.4656 7.03731 2.32159 6.8933L0.185456 4.85318C-0.174566 4.49315 0.0174455 3.86911 0.521477 3.79711L3.42566 3.36508C3.61767 3.34108 3.80968 3.22107 3.88169 3.02906L5.17777 0.388896C5.41778 -0.0671321 6.06582 -0.0671321 6.30584 0.388896Z" fill="#FFA564"/>
</svg>
