<svg width="12" height="11" viewBox="0 0 12 11" fill="none" xmlns="http://www.w3.org/2000/svg">
<path d="M6.30584 0.342021L7.60192 2.98219C7.69793 3.1742 7.86594 3.29421 8.05795 3.31821L10.9621 3.75023C11.4662 3.82224 11.6822 4.44628 11.2982 4.8063L9.21002 6.84643C9.06601 6.99044 8.99401 7.18245 9.04201 7.39846L9.54604 10.2786C9.64205 10.7827 9.09001 11.1667 8.65799 10.9267L6.06582 9.5586C5.87381 9.46259 5.6578 9.46259 5.48979 9.5586L2.87362 10.9267C2.4176 11.1667 1.88956 10.7827 1.98557 10.2786L2.4896 7.39846C2.5136 7.20645 2.4656 6.99044 2.32159 6.84643L0.185456 4.8063C-0.174566 4.44628 0.0174455 3.82224 0.521477 3.75023L3.42566 3.31821C3.61767 3.29421 3.80968 3.1742 3.88169 2.98219L5.17777 0.342021C5.41778 -0.114007 6.06582 -0.114007 6.30584 0.342021Z" fill="#FFA564"/>
</svg>
