<svg width="13" height="13" viewBox="0 0 13 13" fill="none" xmlns="http://www.w3.org/2000/svg">
<path d="M12.2231 5.9833C12.4527 5.75365 12.5216 5.43215 12.4298 5.13361C12.3379 4.83507 12.0853 4.62839 11.7638 4.58246L8.98509 4.1691C8.87027 4.14614 8.75544 4.07724 8.70951 3.96242L7.46943 1.45929C7.33164 1.18372 7.05607 1 6.73457 1C6.41306 1 6.13749 1.18372 5.9997 1.45929L4.75962 3.98539C4.71369 4.10021 4.59887 4.1691 4.48404 4.19207L1.70534 4.58246C1.38384 4.62839 1.13123 4.83507 1.03937 5.13361C0.94751 5.43215 1.0164 5.75365 1.24605 5.9833L3.24396 7.93528C3.33582 8.02714 3.35878 8.14196 3.35878 8.25678L2.87653 11.0125C2.8306 11.334 2.94542 11.6326 3.19803 11.8392C3.45064 12.023 3.79511 12.0459 4.07068 11.9081L6.55085 10.5992C6.66567 10.5532 6.7805 10.5532 6.89532 10.5992L9.37548 11.9081C9.49031 11.977 9.62809 12 9.76588 12C9.92663 12 10.1103 11.9541 10.2481 11.8392C10.5007 11.6555 10.6385 11.357 10.5696 11.0355L10.0874 8.27975C10.0644 8.16493 10.1103 8.0501 10.2022 7.95825L12.2231 5.9833ZM9.65106 8.34864L10.1333 11.1044C10.1563 11.2422 10.1103 11.38 9.99553 11.4489C9.8807 11.5407 9.74292 11.5407 9.60513 11.4718L7.102 10.1858C6.98718 10.1169 6.84939 10.0939 6.7116 10.0939C6.57381 10.0939 6.45899 10.1169 6.3212 10.1858L3.84104 11.4948C3.72622 11.5637 3.56546 11.5407 3.45064 11.4718C3.33582 11.38 3.28989 11.2651 3.31285 11.1273L3.79511 8.37161C3.84104 8.09603 3.74918 7.84342 3.56546 7.63674L1.56755 5.68476C1.47569 5.5929 1.42976 5.45511 1.47569 5.31733C1.52162 5.17954 1.63644 5.08768 1.77423 5.06472L4.55294 4.65136C4.82851 4.60543 5.05816 4.44468 5.17298 4.19207L6.41306 1.66597C6.45899 1.52818 6.59678 1.45929 6.73457 1.45929C6.87235 1.45929 6.98718 1.52818 7.05607 1.66597L8.29615 4.19207C8.41097 4.44468 8.64062 4.60543 8.91619 4.65136L11.6949 5.06472C11.8327 5.08768 11.9475 5.17954 11.9934 5.31733C12.0394 5.45511 11.9934 5.5929 11.9016 5.68476L9.90367 7.63674C9.69699 7.79749 9.60513 8.07307 9.65106 8.34864Z" fill="#F2934F" stroke="#FFA564" stroke-width="0.7"/>
</svg>
