<svg width="13" height="13" viewBox="0 0 13 13" fill="none" xmlns="http://www.w3.org/2000/svg">
<path d="M12.2231 6.03017C12.4527 5.80053 12.5216 5.47903 12.4298 5.18049C12.3379 4.88195 12.0853 4.67527 11.7638 4.62934L8.98509 4.21598C8.87027 4.19301 8.75544 4.12412 8.70951 4.0093L7.46943 1.50617C7.33164 1.23059 7.05607 1.04688 6.73457 1.04688C6.41306 1.04688 6.13749 1.23059 5.9997 1.50617L4.75962 4.03226C4.71369 4.14708 4.59887 4.21598 4.48404 4.23894L1.70534 4.62934C1.38384 4.67527 1.13123 4.88195 1.03937 5.18049C0.94751 5.47903 1.0164 5.80053 1.24605 6.03017L3.24396 7.98216C3.33582 8.07401 3.35878 8.18884 3.35878 8.30366L2.87653 11.0594C2.8306 11.3809 2.94542 11.6794 3.19803 11.8861C3.45064 12.0698 3.79511 12.0928 4.07068 11.955L6.55085 10.646C6.66567 10.6001 6.7805 10.6001 6.89532 10.646L9.37548 11.955C9.49031 12.0239 9.62809 12.0469 9.76588 12.0469C9.92663 12.0469 10.1103 12.0009 10.2481 11.8861C10.5007 11.7024 10.6385 11.4039 10.5696 11.0824L10.0874 8.32662C10.0644 8.2118 10.1103 8.09698 10.2022 8.00512L12.2231 6.03017ZM9.65106 8.39552L10.1333 11.1513C10.1563 11.289 10.1103 11.4268 9.99553 11.4957C9.8807 11.5876 9.74292 11.5876 9.60513 11.5187L7.102 10.2327C6.98718 10.1638 6.84939 10.1408 6.7116 10.1408C6.57381 10.1408 6.45899 10.1638 6.3212 10.2327L3.84104 11.5417C3.72622 11.6105 3.56546 11.5876 3.45064 11.5187C3.33582 11.4268 3.28989 11.312 3.31285 11.1742L3.79511 8.41848C3.84104 8.14291 3.74918 7.8903 3.56546 7.68362L1.56755 5.73163C1.47569 5.63978 1.42976 5.50199 1.47569 5.3642C1.52162 5.22642 1.63644 5.13456 1.77423 5.11159L4.55294 4.69823C4.82851 4.6523 5.05816 4.49155 5.17298 4.23894L6.41306 1.71285C6.45899 1.57506 6.59678 1.50617 6.73457 1.50617C6.87235 1.50617 6.98718 1.57506 7.05607 1.71285L8.29615 4.23894C8.41097 4.49155 8.64062 4.6523 8.91619 4.69823L11.6949 5.11159C11.8327 5.13456 11.9475 5.22642 11.9934 5.3642C12.0394 5.50199 11.9934 5.63978 11.9016 5.73163L9.90367 7.68362C9.69699 7.84437 9.60513 8.11994 9.65106 8.39552Z" fill="#F2934F" stroke="#FFA564" stroke-width="0.7"/>
<path fill-rule="evenodd" clip-rule="evenodd" d="M7 1.05398C6.71228 0.927411 6.34545 1.02343 6.17777 1.34202L4.88169 3.98219C4.80968 4.1742 4.61767 4.29421 4.42566 4.31821L1.52148 4.75023C1.01745 4.82224 0.825433 5.44628 1.18546 5.8063L3.32159 7.84643C3.4656 7.99044 3.5136 8.20645 3.4896 8.39846L2.98557 11.2786C2.88956 11.7827 3.4176 12.1667 3.87362 11.9267L6.48979 10.5586C6.63884 10.4734 6.82567 10.4638 7 10.5298V1.05398Z" fill="#FFA564"/>
</svg>
