<svg width="17" height="18" viewBox="0 0 17 18" fill="none" xmlns="http://www.w3.org/2000/svg">
<g clip-path="url(#clip0)">
<path d="M7.51253 13.5H5.92788C5.34604 13.5 4.87372 13.9852 4.87372 14.5828V15.7852H12.1262V14.5828C12.1262 13.9852 11.6539 13.5 11.072 13.5H9.48737H7.51253Z" fill="white"/>
<path d="M16.5482 2.46797C16.004 1.59258 15.0491 1.10742 13.8615 1.10742H13.8307H3.17274H3.14194C1.9543 1.10742 0.999396 1.58906 0.455204 2.46797C-0.136904 3.41719 -0.150594 4.67227 0.410711 5.9168C1.44433 8.20195 4.70606 8.96484 4.84296 8.99649L5.16126 9.0668H11.8387L12.157 8.99649C12.2939 8.96484 15.5557 8.20195 16.5893 5.9168C17.154 4.67227 17.1369 3.41719 16.5482 2.46797ZM15.6139 5.45273C15.1997 6.37031 14.2311 6.98906 13.4918 7.34766C13.1872 7.49531 12.8963 7.61133 12.6499 7.69922H4.35011C4.10368 7.61133 3.81276 7.49531 3.50815 7.34766C2.76887 6.98906 1.80028 6.37031 1.38615 5.45273C0.982283 4.55977 0.972015 3.68789 1.35877 3.06563C1.70103 2.51719 2.33421 2.21484 3.14194 2.21484H3.17274H13.8273H13.8581C14.6658 2.21484 15.299 2.51719 15.6378 3.06211C16.028 3.68789 16.0177 4.55625 15.6139 5.45273Z" fill="#DCDCDC"/>
<path d="M9.25461 13.5V12.4277C9.25461 11.6543 9.64479 10.9336 10.2917 10.5434C12.3555 9.29883 13.8306 5.95898 13.8306 2.03555V0H3.17267V2.03203C3.17267 5.95547 4.65123 9.29531 6.71163 10.5398C7.3585 10.9301 7.74867 11.6543 7.74867 12.4242V13.4965L8.61116 14.4141L9.25461 13.5Z" fill="white"/>
<path d="M8.14227 12.4242V13.4965H7.74867V12.4242C7.74867 11.6508 7.3585 10.9301 6.71163 10.5398C4.6478 9.29531 3.17267 5.95547 3.17267 2.03203V0H5.95181V2.03203C5.95181 5.95547 6.66029 9.29531 7.64599 10.5398C7.95403 10.9301 8.14227 11.6543 8.14227 12.4242Z" fill="#EEEEEE"/>
<path d="M8.22443 13.5H7.51253H5.92788C5.34604 13.5 4.87372 13.9852 4.87372 14.5828V15.7852H7.17028V14.5828C7.17028 13.9852 7.64259 13.5 8.22443 13.5Z" fill="#DCDCDC"/>
<path d="M7.23883 15.1946H4.46996C4.13796 15.1946 3.871 15.4688 3.871 15.8098V18H13.1325V15.8098C13.1325 15.4688 12.8656 15.1946 12.5336 15.1946H9.7647" fill="#DCDCDC"/>
<path d="M5.1851 15.1946H4.46635C4.13436 15.1946 3.8674 15.4688 3.8674 15.8098V18H4.58614V15.8098C4.58614 15.4688 4.85653 15.1946 5.1851 15.1946Z" fill="#C5C5C5"/>
</g>
<defs>
<clipPath id="clip0">
<rect width="17" height="18" fill="white"/>
</clipPath>
</defs>
</svg>
