<svg width="13" height="11" viewBox="0 0 13 11" fill="none" xmlns="http://www.w3.org/2000/svg">
<path d="M13 1.44099C12.5166 1.65457 12.0014 1.79613 11.4644 1.86487C12.0169 1.53264 12.4386 1.01057 12.6368 0.381304C12.1217 0.690619 11.5529 0.909103 10.9468 1.03103C10.4577 0.506503 9.76056 0.181641 9.00006 0.181641C7.52456 0.181641 6.33669 1.3878 6.33669 2.86646C6.33669 3.07922 6.35456 3.28379 6.39844 3.47854C4.18275 3.36971 2.22219 2.3002 0.905125 0.67098C0.675187 1.07276 0.540313 1.53264 0.540313 2.02771C0.540313 2.95729 1.01562 3.78131 1.72413 4.25838C1.29594 4.25019 0.875875 4.12499 0.52 3.92778C0.52 3.93597 0.52 3.94661 0.52 3.95724C0.52 5.2616 1.44381 6.34502 2.65525 6.5946C2.43831 6.65434 2.20187 6.68298 1.9565 6.68298C1.78587 6.68298 1.61362 6.67316 1.45194 6.63715C1.79725 7.70011 2.77713 8.48158 3.94225 8.50695C3.0355 9.22132 1.88419 9.65174 0.637812 9.65174C0.41925 9.65174 0.209625 9.64192 0 9.61492C1.18056 10.3817 2.57969 10.8194 4.0885 10.8194C8.99275 10.8194 11.674 6.72798 11.674 3.1815C11.674 3.06285 11.6699 2.94829 11.6643 2.83455C12.1932 2.45649 12.6376 1.98434 13 1.44099Z" fill="#7BAAE6"/>
</svg>
