<svg width="14" height="11" viewBox="0 0 14 11" fill="none" xmlns="http://www.w3.org/2000/svg">
<path d="M13.2 1.30223C12.7091 1.52308 12.1861 1.66946 11.6407 1.74054C12.2017 1.397 12.6299 0.857154 12.8312 0.206462C12.3082 0.526308 11.7307 0.752231 11.1152 0.878308C10.6186 0.335923 9.91072 0 9.13853 0C7.64032 0 6.43417 1.24723 6.43417 2.77623C6.43417 2.99623 6.45232 3.20777 6.49687 3.40915C4.2471 3.29662 2.25638 2.19069 0.91905 0.506C0.685575 0.921462 0.548625 1.397 0.548625 1.90892C0.548625 2.87015 1.03125 3.72223 1.75065 4.21554C1.31587 4.20708 0.88935 4.07762 0.528 3.87369C0.528 3.88215 0.528 3.89315 0.528 3.90415C0.528 5.25292 1.46602 6.37323 2.6961 6.63131C2.47582 6.69308 2.23575 6.72269 1.9866 6.72269C1.81335 6.72269 1.63845 6.71254 1.47427 6.67531C1.8249 7.77446 2.81985 8.58254 4.0029 8.60877C3.0822 9.34746 1.91317 9.79254 0.647625 9.79254C0.4257 9.79254 0.21285 9.78238 0 9.75446C1.19872 10.5473 2.61937 11 4.1514 11C9.1311 11 11.8536 6.76923 11.8536 3.102C11.8536 2.97931 11.8495 2.86085 11.8437 2.74323C12.3808 2.35231 12.832 1.86408 13.2 1.30223Z" fill="white"/>
</svg>
