<svg width="16" height="9" viewBox="0 0 16 9" fill="none" xmlns="http://www.w3.org/2000/svg">
<path d="M15.6091 8.03024C15.5661 7.95936 15.3046 7.38923 14.0466 6.21814C12.7271 4.99159 12.9055 5.19191 14.4926 3.06855C15.4615 1.77728 15.846 0.98834 15.726 0.649343C15.6122 0.328837 14.8986 0.412045 14.8986 0.412045L12.5333 0.424372C12.5333 0.424372 12.358 0.399718 12.2257 0.479844C12.0996 0.556889 12.0166 0.735633 12.0166 0.735633C12.0166 0.735633 11.6413 1.73413 11.1431 2.58471C10.0881 4.37831 9.66668 4.47385 9.49444 4.3629C9.09458 4.10403 9.19301 3.31818 9.19301 2.76345C9.19301 1.02532 9.45445 0.3011 8.67935 0.113111C8.42098 0.0514751 8.23336 0.00832999 7.57514 0.0021664C6.72929 -0.00707898 6.01571 0.00524819 5.6097 0.202483C5.33903 0.335 5.13295 0.630852 5.25906 0.646261C5.41592 0.667834 5.76964 0.741797 5.95727 0.997586C6.20025 1.32734 6.19103 2.07005 6.19103 2.07005C6.19103 2.07005 6.32944 4.11636 5.86499 4.37215C5.54511 4.54781 5.10834 4.19032 4.16715 2.56314C3.68732 1.73105 3.3213 0.806515 3.3213 0.806515C3.3213 0.806515 3.25056 0.633934 3.12753 0.544562C2.97681 0.433618 2.76458 0.396636 2.76458 0.396636L0.513095 0.408963C0.513095 0.408963 0.174757 0.418209 0.0517246 0.566135C-0.0590043 0.698652 0.0424972 0.966768 0.0424972 0.966768C0.0424972 0.966768 1.80493 5.09637 3.79805 7.17658C5.62815 9.08421 7.70432 8.96094 7.70432 8.96094H8.64552C8.64552 8.96094 8.92849 8.93012 9.07613 8.77295C9.21146 8.62811 9.20531 8.35999 9.20531 8.35999C9.20531 8.35999 9.18686 7.09337 9.77434 6.90847C10.3526 6.72356 11.0939 8.13194 11.8813 8.67125C12.4749 9.08113 12.927 8.99176 12.927 8.99176L15.0309 8.96094C15.0309 8.9671 16.132 8.8993 15.6091 8.03024Z" fill="white"/>
</svg>
